<svg xmlns="http://www.w3.org/2000/svg" width="21.483" height="26.29" viewBox="0 0 21.483 26.29">
  <g id="Group_5660" data-name="Group 5660" transform="translate(-278.8 -134.377)">
    <g id="Group_5659" data-name="Group 5659" transform="translate(278.8 134.377)">
      <path id="Path_11799" data-name="Path 11799" d="M287.854,194.4l-1.635-.1a29.9,29.9,0,0,1-5.806-.824c-.346-.092-.686-.211-1.025-.327a.705.705,0,0,1-.461-.546,4.38,4.38,0,0,1-.128-.987,19.744,19.744,0,0,1,.522-4.629,8.911,8.911,0,0,1,1.252-2.9,3.552,3.552,0,0,1,1.759-1.185c.908-.35,1.807-.721,2.708-1.087a.942.942,0,0,0,.288-.165.437.437,0,0,1,.663.015.374.374,0,0,1,.173.333q-.035,1.412-.049,2.823a1.2,1.2,0,0,0,.072.423q1.426,3.831,2.863,7.658c.018.048.036.1.055.143a.46.46,0,0,0,.889,0q.34-.9.676-1.8,1.118-2.988,2.233-5.978a1.281,1.281,0,0,0,.079-.447c-.009-.941-.017-1.883-.053-2.824-.011-.308.23-.354.4-.463.07-.045.236,0,.328.058a13.321,13.321,0,0,0,2.94,1.255,3.826,3.826,0,0,1,2.475,2.172,12.928,12.928,0,0,1,1.1,4.3c.075.894.087,1.793.112,2.69a2.161,2.161,0,0,1-.088.529.88.88,0,0,1-.629.674,20.322,20.322,0,0,1-4.769.933c-1.115.1-2.236.151-3.354.226a1.683,1.683,0,0,0-.2.038Z" transform="translate(-278.8 -168.109)" fill="#fff"/>
      <path id="Path_11800" data-name="Path 11800" d="M308.751,138.857c-.118.566-.234,1.133-.358,1.7a.5.5,0,0,0,.064.37,1.667,1.667,0,0,1,.2.772,3.136,3.136,0,0,1-.486,1.754.648.648,0,0,0-.068.217,6.86,6.86,0,0,1-2.005,3.539,3.555,3.555,0,0,1-5.215.1,6.312,6.312,0,0,1-2.114-3.659.52.52,0,0,0-.059-.193,3.511,3.511,0,0,1-.5-2.031.888.888,0,0,1,.162-.5.4.4,0,0,0,.069-.374,5.181,5.181,0,0,1-.141-2.437,4.61,4.61,0,0,1,5.021-3.7,8.179,8.179,0,0,1,3.936,1.554,3.464,3.464,0,0,1,1.434,2.873Z" transform="translate(-292.691 -134.377)" fill="#fff"/>
      <path id="Path_11801" data-name="Path 11801" d="M313.065,188.319l-1.148-1.764a4.362,4.362,0,0,0,2.666.03l-1.126,1.727c.306.337.6.647.875.973a.466.466,0,0,1,.107.326q-.508,3.188-1.039,6.373a.782.782,0,0,1-.129.227c-.052-.077-.136-.148-.15-.231-.353-2.115-.7-4.23-1.049-6.345a.386.386,0,0,1,.128-.379C312.492,188.96,312.767,188.645,313.065,188.319Z" transform="translate(-302.507 -171.73)" fill="#fff"/>
    </g>
  </g>
</svg>
